<svg width="24" height="24" viewBox="0 0 24 24" fill="none" xmlns="http://www.w3.org/2000/svg">
<path d="M24 12.076C24.0004 9.76843 23.3435 7.50907 22.1073 5.56547C20.871 3.62187 19.107 2.07543 17.0243 1.10927C14.9416 0.143106 12.6273 -0.202311 10.3555 0.11392C8.08372 0.43015 5.94957 1.39478 4.20577 2.89359C2.46198 4.3924 1.18157 6.36261 0.516167 8.57093C-0.149235 10.7792 -0.171758 13.1332 0.451262 15.354C1.07428 17.5747 2.31675 19.5694 4.03155 21.1017C5.74634 22.634 7.86164 23.6398 10.127 24V15.564H7.08075V12.076H10.127V9.41447C10.127 6.38922 11.9158 4.71761 14.6594 4.71761C15.5583 4.73024 16.4551 4.80894 17.3426 4.95309V7.92359H15.8311C15.5732 7.88924 15.3111 7.91368 15.0639 7.9951C14.8168 8.07653 14.591 8.21285 14.4033 8.39398C14.2156 8.57511 14.0709 8.7964 13.9797 9.04147C13.8886 9.28653 13.8534 9.54909 13.8768 9.80969V12.076H17.2047L16.6725 15.5655H13.8768V24C16.6987 23.5504 19.2686 22.1025 21.1243 19.9167C22.98 17.7309 23.9997 14.9507 24 12.076Z" fill="#0088FF"/>
</svg>
