<svg width="24" height="24" viewBox="0 0 24 24" fill="none" xmlns="http://www.w3.org/2000/svg">
<path fill-rule="evenodd" clip-rule="evenodd" d="M3.51472 20.4853C5.76516 22.7357 8.8174 24 12 24C15.1826 24 18.2348 22.7357 20.4853 20.4853C22.7357 18.2348 24 15.1826 24 12C24 8.8174 22.7357 5.76516 20.4853 3.51472C18.2348 1.26428 15.1826 0 12 0C8.8174 0 5.76516 1.26428 3.51472 3.51472C1.26428 5.76516 0 8.8174 0 12C0 15.1826 1.26428 18.2348 3.51472 20.4853ZM15.1024 5.75083C14.2924 5.71286 14.0498 5.70584 11.9996 5.70584C9.95146 5.70584 9.70678 5.71286 8.8968 5.75083C8.40959 5.75742 7.9271 5.84731 7.4702 6.01661C7.13927 6.14419 6.83873 6.33967 6.58793 6.59047C6.33714 6.84126 6.14165 7.1418 6.01408 7.47274C5.84365 7.92932 5.75372 8.41201 5.7483 8.89934C5.71033 9.70931 5.7033 9.95399 5.7033 12.0021C5.7033 14.0503 5.71244 14.2949 5.7483 15.1049C5.75487 15.5921 5.84476 16.0746 6.01408 16.5315C6.14165 16.8625 6.33714 17.163 6.58793 17.4138C6.83873 17.6646 7.13927 17.8601 7.4702 17.9877C7.92679 18.1581 8.40948 18.248 8.8968 18.2534C9.70678 18.2914 9.95146 18.2984 11.9996 18.2984C14.0477 18.2984 14.2924 18.2893 15.1024 18.2534C15.5896 18.2468 16.0721 18.157 16.529 17.9877C16.8599 17.8601 17.1605 17.6646 17.4113 17.4138C17.6621 17.163 17.8575 16.8625 17.9851 16.5315C18.1555 16.0749 18.2455 15.5922 18.2509 15.1049C18.2889 14.2949 18.2959 14.0503 18.2959 12.0021C18.2959 9.95399 18.2868 9.70931 18.2509 8.89934C18.2443 8.41213 18.1544 7.92964 17.9851 7.47274C17.8575 7.1418 17.6621 6.84126 17.4113 6.59047C17.1605 6.33967 16.8599 6.14419 16.529 6.01661C16.0724 5.84618 15.5897 5.75626 15.1024 5.75083ZM8.83563 4.36924C9.65264 4.33127 9.91349 4.32213 11.9996 4.32213L11.9975 4.32002C14.0836 4.32002 14.3444 4.32916 15.1614 4.36502C15.7989 4.37875 16.4295 4.49974 17.0268 4.7229C17.5371 4.92005 18.0007 5.22138 18.3881 5.60767C18.7755 5.99396 19.0781 6.45674 19.2767 6.9665C19.5005 7.56361 19.6215 8.19431 19.6346 8.83183C19.6726 9.64884 19.6817 9.9118 19.6817 11.9958C19.6817 14.0798 19.6726 14.3407 19.6346 15.1598C19.6209 15.7972 19.4999 16.4278 19.2767 17.0251C19.0796 17.5354 18.7782 17.999 18.392 18.3864C18.0057 18.7738 17.5429 19.0764 17.0331 19.275C16.436 19.4988 15.8053 19.6198 15.1678 19.6329C14.3508 19.6709 14.0878 19.68 12.0038 19.68C9.91981 19.68 9.65896 19.6709 8.83985 19.6329C8.20239 19.6192 7.57179 19.4982 6.97451 19.275C6.4642 19.0779 6.00057 18.7766 5.61318 18.3903C5.2258 18.004 4.92317 17.5412 4.72458 17.0314C4.5008 16.4343 4.37979 15.8036 4.3667 15.1661C4.32873 14.3491 4.31959 14.0861 4.31959 12.0021C4.31959 9.91813 4.32873 9.65728 4.3667 8.83816C4.38043 8.2007 4.50142 7.57011 4.72458 6.97283C4.91797 6.4602 5.2205 5.99573 5.6112 5.61162C5.9934 5.22009 6.45754 4.91803 6.9703 4.72712C7.5674 4.50333 8.1981 4.38232 8.83563 4.36924ZM11.9995 8.05819C11.2193 8.05819 10.4567 8.28951 9.80806 8.72293C9.1594 9.15634 8.65385 9.77238 8.35531 10.4931C8.05676 11.2139 7.97865 12.007 8.13085 12.7721C8.28304 13.5372 8.65871 14.2401 9.21035 14.7917C9.76199 15.3433 10.4648 15.719 11.2299 15.8712C11.9951 16.0234 12.7882 15.9453 13.5089 15.6467C14.2297 15.3482 14.8457 14.8427 15.2791 14.194C15.7125 13.5453 15.9439 12.7827 15.9439 12.0026C15.9437 10.9565 15.5281 9.95335 14.7884 9.21367C14.0487 8.47399 13.0455 8.05837 11.9995 8.05819ZM11.9995 14.5633C11.493 14.5633 10.9979 14.4131 10.5768 14.1317C10.1557 13.8504 9.82749 13.4504 9.63368 12.9825C9.43986 12.5146 9.38916 11.9998 9.48796 11.503C9.58677 11.0063 9.83065 10.55 10.1888 10.1919C10.5469 9.83377 11.0032 9.58989 11.4999 9.49109C11.9966 9.39228 12.5115 9.44299 12.9794 9.6368C13.4473 9.83062 13.8472 10.1588 14.1286 10.5799C14.41 11.0011 14.5602 11.4961 14.5602 12.0026C14.5602 12.6817 14.2904 13.3331 13.8102 13.8133C13.3299 14.2935 12.6786 14.5633 11.9995 14.5633ZM17.022 7.90232C17.022 8.41178 16.609 8.82479 16.0995 8.82479C15.5901 8.82479 15.1771 8.41178 15.1771 7.90232C15.1771 7.39285 15.5901 6.97985 16.0995 6.97985C16.609 6.97985 17.022 7.39285 17.022 7.90232Z" fill="#0088FF"/>
</svg>
