<svg width="24" height="24" viewBox="0 0 24 24" fill="none" xmlns="http://www.w3.org/2000/svg">
<path fill-rule="evenodd" clip-rule="evenodd" d="M12 24C18.6274 24 24 18.6274 24 12C24 5.37258 18.6274 0 12 0C5.37258 0 0 5.37258 0 12C0 18.6274 5.37258 24 12 24ZM8.58705 6.8242C8.65234 6.98499 8.68533 7.15706 8.68412 7.33059V7.37188C8.67995 7.54543 8.64163 7.71645 8.57134 7.87518C8.50106 8.03391 8.40018 8.17724 8.27449 8.29697C8.14879 8.4167 8.00073 8.5105 7.83877 8.57299C7.67682 8.63548 7.50413 8.66545 7.33059 8.66118C6.97769 8.66118 6.63925 8.52099 6.38972 8.27146C6.14019 8.02192 6 7.68348 6 7.33059C6 6.97769 6.14019 6.63925 6.38972 6.38972C6.63925 6.14019 6.97769 6 7.33059 6H7.37188C7.54541 6.0012 7.71701 6.03657 7.87687 6.10409C8.03673 6.17161 8.18173 6.26995 8.30358 6.39351C8.42544 6.51707 8.52176 6.66342 8.58705 6.8242ZM6.18353 17.1953V9.85412H8.47765V17.1953H6.18353ZM17.1953 12.7355C17.1953 10.5286 15.7913 9.67059 14.3965 9.67059C13.9398 9.64772 13.4851 9.74499 13.0777 9.9527C12.6703 10.1604 12.3245 10.4713 12.0748 10.8544H12.0106V9.85412H9.85412V17.1953H12.1482V13.2907C12.1151 12.8908 12.241 12.494 12.4988 12.1864C12.7565 11.8789 13.1252 11.6854 13.5247 11.6481H13.6119C14.3414 11.6481 14.8828 12.1069 14.8828 13.2632V17.1953H17.1769L17.1953 12.7355Z" fill="#0088FF"/>
</svg>
