<svg width="24" height="24" viewBox="0 0 24 24" fill="none" xmlns="http://www.w3.org/2000/svg">
<path fill-rule="evenodd" clip-rule="evenodd" d="M12 24C18.6274 24 24 18.6274 24 12C24 5.37258 18.6274 0 12 0C5.37258 0 0 5.37258 0 12C0 18.6274 5.37258 24 12 24ZM6.10899 6C5.38599 6 4.7999 6.58615 4.7999 7.30909V16.4727C4.7999 17.1957 5.38599 17.7818 6.10899 17.7818H17.8908C18.6138 17.7818 19.1999 17.1957 19.1999 16.4727V7.30909C19.1999 6.58615 18.6138 6 17.8908 6H6.10899ZM6.76353 7.30909C6.4842 7.30909 6.24574 7.48408 6.15177 7.7304L11.9999 11.6291L17.848 7.7304C17.7541 7.48408 17.5156 7.30909 17.2363 7.30909H6.76353ZM6.10899 15.8182V9.60006L11.9999 13.5273L17.8908 9.60006V15.8182C17.8908 16.1796 17.5978 16.4727 17.2363 16.4727H6.76353C6.40204 16.4727 6.10899 16.1796 6.10899 15.8182Z" fill="#0088FF"/>
</svg>
