<svg width="24" height="24" viewBox="0 0 24 24" fill="none" xmlns="http://www.w3.org/2000/svg">
<path fill-rule="evenodd" clip-rule="evenodd" d="M24 12C24 18.6274 18.6274 24 12 24C5.37258 24 0 18.6274 0 12C0 5.37258 5.37258 0 12 0C18.6274 0 24 5.37258 24 12ZM13.0919 17.6552C12.0799 18.0704 10.9955 18.2804 9.90166 18.273L9.90316 18.276C8.31756 18.2801 6.76529 17.821 5.43692 16.9552C5.66798 16.9848 5.90073 16.999 6.13366 16.998C7.44928 17.0002 8.72757 16.5608 9.76367 15.75C9.15396 15.739 8.56302 15.5373 8.07388 15.1731C7.58475 14.809 7.22202 14.3007 7.03667 13.7197C7.21814 13.7562 7.4028 13.7746 7.58792 13.7745C7.84785 13.7747 8.10665 13.7402 8.35742 13.6717C7.69577 13.5379 7.10077 13.1794 6.67332 12.657C6.24586 12.1345 6.01228 11.4803 6.01217 10.8052V10.7692C6.4166 10.9953 6.86976 11.1201 7.33292 11.133C6.71299 10.7211 6.27368 10.0882 6.10474 9.36332C5.9358 8.63848 6.04996 7.87649 6.42391 7.23299C7.15735 8.13624 8.07271 8.87498 9.11045 9.40115C10.1482 9.92732 11.2851 10.2291 12.4472 10.287C12.393 10.0689 12.3666 9.84492 12.3684 9.62024C12.3698 9.03494 12.5467 8.46351 12.8763 7.97984C13.2059 7.49617 13.673 7.1225 14.2173 6.90716C14.7615 6.69182 15.3578 6.64472 15.9291 6.77193C16.5005 6.89914 17.0205 7.19482 17.4219 7.62074C18.0754 7.49056 18.7022 7.25094 19.2759 6.91199C19.0591 7.58976 18.6022 8.16503 17.9912 8.52975C18.5703 8.45962 19.1359 8.30445 19.6697 8.06925C19.2762 8.6565 18.7818 9.16942 18.2094 9.58424C18.2154 9.70492 18.2154 9.83158 18.2154 9.959V9.95924C18.2228 11.0531 18.0128 12.1375 17.5976 13.1495C17.1824 14.1615 16.5703 15.0809 15.7968 15.8544C15.0233 16.6279 14.1039 17.24 13.0919 17.6552Z" fill="#0088FF"/>
</svg>
